/vscmnt/brussel_pixiu_data/_data_brussel/112/vsc11236/PredSimResults/SUBJ11opt3D/weighted-LRposFixed/trackIG/worker_04.mot
version=1
nRows=5
nColumns=50
inDegrees=yes
endheader
                time	         pelvis_tilt	         pelvis_list	     pelvis_rotation	           pelvis_tx	           pelvis_ty	           pelvis_tz	       hip_flexion_r	     hip_adduction_r	      hip_rotation_r	        knee_angle_r	       ankle_angle_r	         mtp_angle_r	       hip_flexion_l	     hip_adduction_l	      hip_rotation_l	        knee_angle_l	       ankle_angle_l	         mtp_angle_l	    lumbar_extension	      lumbar_bending	     lumbar_rotation	 ercspn_r/activation	 intobl_r/activation	 extobl_r/activation	    abd_r/activation	    add_r/activation	hamstrings_r/activation	bifemsh_r/activation	glut_max_r/activation	iliopsoas_r/activation	rect_fem_r/activation	  vasti_r/activation	gastroc_r/activation	 soleus_r/activation	tib_ant_r/activation	 ercspn_l/activation	 intobl_l/activation	 extobl_l/activation	    abd_l/activation	    add_l/activation	hamstrings_l/activation	bifemsh_l/activation	glut_max_l/activation	iliopsoas_l/activation	rect_fem_l/activation	  vasti_l/activation	gastroc_l/activation	 soleus_l/activation	tib_ant_l/activation	
          1.41923088	         -2.40347183	         -1.31404583	          6.01249663	          1.43342319	          0.94354556	         -0.00491017	         30.34074188	         -1.44019453	         -3.36526486	         -9.14703340	          1.76889782	          0.21944540	        -13.29170948	         -3.15561034	         -0.45162955	        -11.58892119	         13.73578516	         27.70174025	        -14.42427573	         -2.93459189	         -3.40047116	          0.02769458	          0.28958255	          0.07687605	          0.00999999	          0.19872116	          0.04091117	          0.15050747	          0.02859907	          0.11979500	          0.04617134	          0.02229013	          0.00999999	          0.00999999	          0.39711870	          0.00999999	          0.00999999	          0.00999999	          0.04479442	          0.00999999	          0.02215729	          0.31815784	          0.03507340	          0.21584150	          0.00999999	          0.00999999	          0.17456811	          0.35203759	          0.01529026	
          1.43342319	         -2.57776506	         -1.37638754	          6.13501781	          1.45159067	          0.94112835	         -0.00355385	         30.29952769	         -1.21990195	         -3.54575640	        -10.37332353	          1.25754325	          0.23473632	        -13.83144169	         -3.41978078	         -0.79840055	        -12.25471391	         13.11663854	         29.46208874	        -13.97172910	         -2.39584462	         -3.61644905	          0.02239686	          0.23418806	          0.06217037	          0.00999999	          0.24867720	          0.03754893	          0.12171677	          0.07862083	          0.09687932	          0.03733918	          0.01802624	          0.01236537	          0.01236537	          0.41634449	          0.01195729	          0.00999999	          0.00999999	          0.03622566	          0.05076258	          0.02829828	          0.28174157	          0.02836418	          0.24547246	          0.00999999	          0.00999999	          0.15658641	          0.33526907	          0.01236537	
          1.44761550	         -2.72850484	         -1.46225856	          6.24143402	          1.47029591	          0.93897501	         -0.00214611	         30.12984231	         -1.00550555	         -3.60527370	        -11.72892682	          0.80196361	          0.20493547	        -14.25966139	         -3.71948963	         -1.15115596	        -13.19416034	         12.34763812	         31.32739493	        -13.47066858	         -1.81889751	         -3.83501629	          0.01811255	          0.18939003	          0.05027775	          0.02699177	          0.20215490	          0.05027575	          0.09843347	          0.11813157	          0.07834719	          0.03019654	          0.01457798	          0.00999999	          0.00999999	          0.47749241	          0.00999999	          0.00999999	          0.00999999	          0.02929602	          0.04105216	          0.03403346	          0.24098907	          0.02293837	          0.19851583	          0.00999999	          0.00999999	          0.12663286	          0.31256333	          0.00999999	
          1.46180780	         -2.85886998	         -1.55279742	          6.31950513	          1.48920790	          0.93729489	         -0.00064844	         29.91601287	         -0.79807795	         -3.76678186	        -13.01623668	          0.13239841	          0.18193379	        -14.48896341	         -4.03318456	         -1.51937963	        -14.50720415	         11.37916295	         33.30669831	        -12.95986703	         -1.23401904	         -4.04329047	          0.02468745	          0.15316146	          0.04066008	          0.06210855	          0.24176483	          0.05133881	          0.07960405	          0.12636185	          0.06336009	          0.02442022	          0.01848652	          0.00999999	          0.00999999	          0.53397583	          0.02921289	          0.00999999	          0.00999999	          0.02369196	          0.03319926	          0.03539875	          0.19570447	          0.01855047	          0.17485124	          0.00999999	          0.00999999	          0.10240916	          0.28459296	          0.00999999	
          1.47600011	         -2.96799828	         -1.63741599	          6.36748450	          1.50809031	          0.93621330	          0.00093435	         29.76054836	         -0.61329452	         -4.03305744	        -14.44130693	         -0.46725118	          0.14227582	        -14.45759592	         -4.35059243	         -1.90006547	        -16.26777808	         10.18122860	         35.37909565	        -12.46584950	         -0.65595877	         -4.23614321	          0.02898024	          0.12386307	          0.03288218	          0.09050239	          0.27448231	          0.05829248	          0.06437652	          0.11533861	          0.05123989	          0.01974885	          0.09803391	          0.00999999	          0.00999999	          0.57508000	          0.05326202	          0.00999999	          0.00999999	          0.01915990	          0.07974193	          0.03986711	          0.15826800	          0.01500194	          0.14140380	          0.00999999	          0.00999999	          0.08281922	          0.24915899	          0.00999999	
